<svg width="16" height="16" viewBox="0 0 16 16" fill="none" xmlns="http://www.w3.org/2000/svg">
<path d="M11 2C11.5523 2 12 2.44772 12 3V9H4V6H6C7.10457 6 8 5.10457 8 4V2H11Z" fill="#253627"/>
<path d="M7 4C7 4.06893 6.99277 4.13617 6.97949 4.20117C6.88625 4.65686 6.48325 5 6 5H4.41406L7 2.41406V4Z" fill="#253627"/>
<path fill-rule="evenodd" clip-rule="evenodd" d="M11 1C12.1046 1 13 1.89543 13 3V9H12V3C12 2.44772 11.5523 2 11 2H8V4C8 5.10457 7.10457 6 6 6H4V9H3V5.41406C3.00004 5.1489 3.10547 4.89453 3.29297 4.70703L6.70703 1.29297C6.89453 1.10547 7.1489 1.00004 7.41406 1H11ZM4.41406 5H6C6.55228 5 7 4.55228 7 4V2.41406L4.41406 5Z" fill="#57965C"/>
<path d="M3.67188 10C3.81941 10.0366 3.95727 10.0871 4.08496 10.1533C4.36922 10.3009 4.59147 10.5085 4.75 10.7764C4.86894 10.9773 4.94309 11.2046 4.97266 11.458C4.98283 11.5426 4.9873 11.6299 4.9873 11.7197V14.2939C4.9873 14.5107 4.95896 14.7092 4.90332 14.8896C4.89958 14.902 4.89362 14.9136 4.88965 14.9258L3.96191 13.417V11.7197C3.96191 11.5419 3.93038 11.3887 3.86816 11.2598C3.83116 11.1853 3.78313 11.12 3.72461 11.0635C3.67825 11.0155 3.62577 10.9758 3.56836 10.9424C3.43652 10.8707 3.27576 10.834 3.08496 10.834C2.8958 10.834 2.73697 10.8678 2.6084 10.9355C2.54555 10.9701 2.48849 11.0125 2.4375 11.0635L2.38379 11.126C2.33347 11.1911 2.29351 11.2646 2.26465 11.3467C2.22734 11.4551 2.20801 11.5793 2.20801 11.7197V14.2939C2.20801 14.4397 2.2297 14.5687 2.27148 14.6816C2.31119 14.7864 2.36864 14.8762 2.44531 14.9502C2.49136 14.9979 2.54364 15.037 2.60059 15.0703C2.73264 15.1424 2.8936 15.1797 3.08496 15.1797C3.1912 15.1797 3.28707 15.1662 3.37402 15.1445L2.66992 14H3.77441L5 15.999H3.90039L3.87109 15.9521C3.82165 15.9703 3.7707 15.9856 3.71875 16H2.44629C2.31824 15.9646 2.19758 15.9188 2.08496 15.8604C1.8007 15.7128 1.57845 15.5052 1.41992 15.2373C1.26139 14.9694 1.18262 14.6547 1.18262 14.2939V11.7197C1.18262 11.3535 1.26237 11.0388 1.4209 10.7764C1.57942 10.5087 1.80083 10.3008 2.08496 10.1533C2.21265 10.0871 2.35051 10.0366 2.49805 10H3.67188Z" fill="#CED0D6"/>
<path d="M13.542 10C13.6893 10.0366 13.8259 10.087 13.9512 10.1533C14.2354 10.2954 14.4577 10.4974 14.6162 10.7598C14.7747 11.0221 14.8535 11.3369 14.8535 11.7031H13.8203C13.8203 11.419 13.7438 11.2032 13.5908 11.0557C13.4432 10.9081 13.23 10.834 12.9512 10.834C12.6724 10.834 12.4568 10.9081 12.3037 11.0557C12.1506 11.2033 12.0742 11.4165 12.0742 11.6953V14.3105C12.0742 14.5893 12.1506 14.8059 12.3037 14.959C12.4567 15.1064 12.6726 15.1797 12.9512 15.1797C13.2299 15.1797 13.4432 15.1065 13.5908 14.959C13.7439 14.8059 13.8203 14.5893 13.8203 14.3105H14.8535C14.8535 14.6659 14.7747 14.9782 14.6162 15.2461C14.4577 15.5139 14.2354 15.7216 13.9512 15.8691C13.8454 15.923 13.7318 15.9666 13.6104 16H12.292C12.1688 15.9666 12.0522 15.923 11.9424 15.8691C11.6582 15.7215 11.4368 15.5163 11.2783 15.2539C11.1253 14.986 11.0488 14.6713 11.0488 14.3105V11.7031C11.0488 11.3369 11.1253 11.0221 11.2783 10.7598C11.4368 10.4975 11.6583 10.2954 11.9424 10.1533C12.0725 10.087 12.2124 10.0366 12.3613 10H13.542Z" fill="#CED0D6"/>
<path fill-rule="evenodd" clip-rule="evenodd" d="M8.05859 10.0137C8.4575 10.0137 8.80214 10.0879 9.0918 10.2354C9.38697 10.3829 9.61725 10.5906 9.78125 10.8584C9.94518 11.1207 10.0273 11.4324 10.0273 11.793C10.0273 12.1866 9.9259 12.5343 9.72363 12.835C9.52684 13.1356 9.25883 13.3489 8.91992 13.4746L10.1094 16H8.96094L7.91992 13.6221H7.18945V16H6.16504V10.0137H8.05859ZM7.18945 12.7197H8.05859C8.34817 12.7197 8.57528 12.6408 8.73926 12.4824C8.90326 12.3239 8.98535 12.105 8.98535 11.8262C8.98534 11.5419 8.90325 11.3206 8.73926 11.1621C8.57527 10.9982 8.34825 10.916 8.05859 10.916H7.18945V12.7197Z" fill="#CED0D6"/>
</svg>
